<svg id="Layer_1" data-name="Layer 1" xmlns="http://www.w3.org/2000/svg" viewBox="0 0 1359.99 504.08"><defs><style>.cls-1{fill:#545d6d;}.cls-2{fill:#eaeaea;}.cls-3{fill:#4cc1c4;}.cls-4{fill:#565656;}.cls-5{fill:#323948;}.cls-6{fill:#191f28;}.cls-7{fill:#d3d3d3;}.cls-8{fill:#bcbec0;}.cls-9{fill:#ff7503;}.cls-10{fill:#4fbcae;}.cls-10,.cls-11,.cls-12{fill-rule:evenodd;}.cls-11{fill:#264a98;}.cls-12{fill:#fff;}.cls-13{fill:none;stroke:#46494f;stroke-miterlimit:10;}</style></defs><title>Bus_RATP</title><path class="cls-1" d="M1102.45,807.91a101,101,0,0,1,201.36,0Z" transform="translate(-210.97 -394.57)"/><path class="cls-1" d="M432.62,807.91a101,101,0,0,1,201.37,0Z" transform="translate(-210.97 -394.57)"/><path class="cls-2" d="M211,402.49V812a7.92,7.92,0,0,0,7.92,7.91h213.5c-.08-1.36-.1-2.73-.1-4.11a101,101,0,1,1,202,0c0,1.38,0,2.75-.1,4.11h468c-.08-1.36-.1-2.73-.1-4.11a101,101,0,1,1,202,0c0,1.38,0,2.75-.1,4.11h211.89a16.16,16.16,0,0,0,16.16-16.15v-393a16.16,16.16,0,0,0-16.16-16.15h-1297A7.92,7.92,0,0,0,211,402.49Z" transform="translate(-210.97 -394.57)"/><path class="cls-3" d="M211,398.75V614.91c0,2.31,3.55,4.18,7.92,4.18h213.5a19.59,19.59,0,0,1-.1-2.17c0-29.45,45.22-53.32,101-53.32s101,23.87,101,53.32a19.59,19.59,0,0,1-.1,2.17h468a19.59,19.59,0,0,1-.1-2.17c0-29.45,45.22-53.32,101-53.32s101,23.87,101,53.32a19.59,19.59,0,0,1-.1,2.17h211.89c8.92,0,16.16-3.82,16.16-8.53V403.1c0-4.71-7.24-8.53-16.16-8.53h-1297C214.52,394.57,211,396.44,211,398.75Z" transform="translate(-210.97 -394.57)"/><path class="cls-4" d="M1290.87,765.78h241.22v38a16.16,16.16,0,0,1-16.16,16.15H1304c.08-1.36.1-2.73.1-4.11A100.47,100.47,0,0,0,1290.87,765.78Z" transform="translate(-210.97 -394.57)"/><path class="cls-4" d="M445.56,765.78a100.47,100.47,0,0,0-13.27,50c0,1.38,0,2.75.1,4.11H218.89A7.92,7.92,0,0,1,211,812V765.78Z" transform="translate(-210.97 -394.57)"/><path class="cls-4" d="M621.05,765.78h494.34a100.47,100.47,0,0,0-13.27,50c0,1.38,0,2.75.1,4.11h-468c.08-1.36.1-2.73.1-4.11A100.47,100.47,0,0,0,621.05,765.78Z" transform="translate(-210.97 -394.57)"/><path class="cls-5" d="M1494.35,655.13V450.94a20.84,20.84,0,0,1,20.84-20.84h16.9v239h-23.74A14,14,0,0,1,1494.35,655.13Z" transform="translate(-210.97 -394.57)"/><path class="cls-6" d="M1494.35,465.94v-15a20.81,20.81,0,0,1,19.56-20.77v26a9.79,9.79,0,0,1-9.79,9.79Z" transform="translate(-210.97 -394.57)"/><path class="cls-7" d="M1502,712.92l7.15,42.66c2.62,15.64,10.5,26.3,19.42,26.3h3.49v-69Z" transform="translate(-210.97 -394.57)"/><rect class="cls-5" y="41.63" width="1150.13" height="182.89"/><rect class="cls-5" y="237.72" width="1150.13" height="3.82"/><rect class="cls-5" x="1320.64" y="436.2" width="158.78" height="376.01" transform="translate(2589.09 853.84) rotate(-180)"/><rect class="cls-1" x="1196.62" y="61.46" width="59.44" height="343.8"/><rect class="cls-1" x="1122.06" y="61.46" width="59.44" height="343.8"/><rect class="cls-5" x="700.71" y="436.2" width="158.78" height="376.01" transform="translate(1349.24 853.84) rotate(-180)"/><rect class="cls-1" x="576.7" y="61.46" width="59.44" height="343.8"/><rect class="cls-1" x="502.13" y="61.46" width="59.44" height="343.8"/><rect class="cls-1" x="965.09" y="61.46" width="144.64" height="35.93"/><rect class="cls-1" x="965.09" y="106.06" width="144.64" height="101.19"/><rect class="cls-1" x="648.52" y="61.46" width="144.64" height="35.93"/><rect class="cls-1" x="648.52" y="106.06" width="144.64" height="101.19"/><rect class="cls-1" x="806.5" y="61.46" width="144.64" height="35.93"/><rect class="cls-1" x="806.5" y="106.06" width="144.64" height="101.19"/><rect class="cls-1" x="345.1" y="61.46" width="144.64" height="35.93"/><rect class="cls-1" x="345.1" y="106.06" width="144.64" height="101.19"/><rect class="cls-1" x="28.53" y="61.46" width="144.64" height="35.93"/><rect class="cls-1" x="28.53" y="106.06" width="144.64" height="101.19"/><rect class="cls-1" x="186.51" y="61.46" width="144.64" height="35.93"/><rect class="cls-1" x="186.51" y="106.06" width="144.64" height="101.19"/><circle class="cls-5" cx="992.16" cy="421.23" r="82.85"/><circle class="cls-8" cx="992.16" cy="421.23" r="42.38"/><path class="cls-5" d="M1197.33,784.55a5.81,5.81,0,1,0,5.8-5.8A5.81,5.81,0,0,0,1197.33,784.55Z" transform="translate(-210.97 -394.57)"/><path class="cls-5" d="M1197.33,846.83a5.81,5.81,0,1,0,5.8-5.8A5.81,5.81,0,0,0,1197.33,846.83Z" transform="translate(-210.97 -394.57)"/><path class="cls-5" d="M1213.68,785.82a5.8,5.8,0,1,0,7.93-2.12A5.81,5.81,0,0,0,1213.68,785.82Z" transform="translate(-210.97 -394.57)"/><path class="cls-5" d="M1182.54,839.76a5.8,5.8,0,1,0,7.93-2.13A5.82,5.82,0,0,0,1182.54,839.76Z" transform="translate(-210.97 -394.57)"/><path class="cls-5" d="M1227.2,795.1a5.8,5.8,0,1,0,7.93,2.12A5.79,5.79,0,0,0,1227.2,795.1Z" transform="translate(-210.97 -394.57)"/><path class="cls-5" d="M1173.26,826.24a5.8,5.8,0,1,0,7.93,2.12A5.8,5.8,0,0,0,1173.26,826.24Z" transform="translate(-210.97 -394.57)"/><path class="cls-5" d="M1234.28,809.89a5.81,5.81,0,1,0,5.8,5.8A5.81,5.81,0,0,0,1234.28,809.89Z" transform="translate(-210.97 -394.57)"/><path class="cls-5" d="M1172,809.89a5.81,5.81,0,1,0,5.81,5.8A5.8,5.8,0,0,0,1172,809.89Z" transform="translate(-210.97 -394.57)"/><path class="cls-5" d="M1233,826.24a5.8,5.8,0,1,0,2.12,7.92A5.79,5.79,0,0,0,1233,826.24Z" transform="translate(-210.97 -394.57)"/><path class="cls-5" d="M1179.07,795.1a5.8,5.8,0,1,0,2.12,7.92A5.79,5.79,0,0,0,1179.07,795.1Z" transform="translate(-210.97 -394.57)"/><path class="cls-5" d="M1223.73,839.76a5.8,5.8,0,1,0-2.12,7.93A5.8,5.8,0,0,0,1223.73,839.76Z" transform="translate(-210.97 -394.57)"/><path class="cls-5" d="M1192.59,785.82a5.8,5.8,0,1,0-2.12,7.93A5.8,5.8,0,0,0,1192.59,785.82Z" transform="translate(-210.97 -394.57)"/><circle class="cls-5" cx="992.16" cy="421.23" r="17.22"/><circle class="cls-5" cx="322.33" cy="421.23" r="82.85"/><circle class="cls-8" cx="322.33" cy="421.23" r="42.38"/><path class="cls-5" d="M527.5,784.55a5.81,5.81,0,1,0,5.81-5.8A5.81,5.81,0,0,0,527.5,784.55Z" transform="translate(-210.97 -394.57)"/><path class="cls-5" d="M527.5,846.83a5.81,5.81,0,1,0,5.81-5.8A5.81,5.81,0,0,0,527.5,846.83Z" transform="translate(-210.97 -394.57)"/><path class="cls-5" d="M543.85,785.82a5.8,5.8,0,1,0,7.93-2.12A5.81,5.81,0,0,0,543.85,785.82Z" transform="translate(-210.97 -394.57)"/><path class="cls-5" d="M512.71,839.76a5.8,5.8,0,1,0,7.93-2.13A5.82,5.82,0,0,0,512.71,839.76Z" transform="translate(-210.97 -394.57)"/><path class="cls-5" d="M557.37,795.1a5.8,5.8,0,1,0,7.93,2.12A5.8,5.8,0,0,0,557.37,795.1Z" transform="translate(-210.97 -394.57)"/><path class="cls-5" d="M503.44,826.24a5.8,5.8,0,1,0,7.92,2.12A5.8,5.8,0,0,0,503.44,826.24Z" transform="translate(-210.97 -394.57)"/><path class="cls-5" d="M564.45,809.89a5.81,5.81,0,1,0,5.8,5.8A5.81,5.81,0,0,0,564.45,809.89Z" transform="translate(-210.97 -394.57)"/><path class="cls-5" d="M502.17,809.89a5.81,5.81,0,1,0,5.8,5.8A5.81,5.81,0,0,0,502.17,809.89Z" transform="translate(-210.97 -394.57)"/><path class="cls-5" d="M563.18,826.24a5.8,5.8,0,1,0,2.12,7.92A5.79,5.79,0,0,0,563.18,826.24Z" transform="translate(-210.97 -394.57)"/><path class="cls-5" d="M509.24,795.1a5.8,5.8,0,1,0,2.12,7.92A5.79,5.79,0,0,0,509.24,795.1Z" transform="translate(-210.97 -394.57)"/><path class="cls-5" d="M553.9,839.76a5.8,5.8,0,1,0-2.12,7.93A5.8,5.8,0,0,0,553.9,839.76Z" transform="translate(-210.97 -394.57)"/><path class="cls-5" d="M522.76,785.82a5.8,5.8,0,1,0-2.12,7.93A5.8,5.8,0,0,0,522.76,785.82Z" transform="translate(-210.97 -394.57)"/><circle class="cls-5" cx="322.33" cy="421.23" r="17.22"/><path class="cls-6" d="M1515.77,430.17h46l8,10.94H1510.4v-5.58A5.36,5.36,0,0,1,1515.77,430.17Z" transform="translate(-210.97 -394.57)"/><path class="cls-6" d="M1561.73,430.17s9.23,5.41,9.23,18.11v53.46a10.87,10.87,0,0,1-10.87,10.87h-12.72V438.52Z" transform="translate(-210.97 -394.57)"/><rect class="cls-9" x="1253.98" y="642.96" width="23.01" height="11.1" transform="translate(2320 902.46) rotate(-180)"/><rect class="cls-9" x="648.84" y="642.96" width="23.01" height="11.1" transform="translate(1109.73 902.46) rotate(-180)"/><rect class="cls-5" x="55.6" y="300.2" width="100.38" height="4.26"/><rect class="cls-5" x="55.6" y="311.76" width="100.38" height="4.26"/><rect class="cls-5" x="55.6" y="323.32" width="100.38" height="4.26"/><rect class="cls-5" x="55.6" y="334.89" width="100.38" height="4.26"/><rect class="cls-5" x="55.6" y="346.45" width="100.38" height="4.26"/><rect class="cls-5" x="55.6" y="358.01" width="100.38" height="4.26"/><rect class="cls-5" x="55.6" y="369.57" width="100.38" height="4.26"/><rect class="cls-5" x="55.6" y="381.14" width="100.38" height="4.26"/><rect class="cls-2" x="576.7" y="224.52" width="59.44" height="180.73"/><rect class="cls-2" x="502.13" y="224.52" width="59.44" height="180.73"/><polygon class="cls-10" points="568.91 261.59 561.25 247.15 548.58 261.59 550.64 261.59 553.59 258.35 562.43 258.35 564.2 261.59 568.91 261.59 568.91 261.59"/><path class="cls-10" d="M749.53,649.09h-4.12l5.89,7.07h5.6L751.3,650c7.66,0,7.37-4.42,7.37-4.42,0-3.54-5.9-3.54-5.9-3.54H742.16l-2.65,14.15h4.72l2.06-13h4.42s2.95,0,2.95,2.66c0,0,0,3.24-4.13,3.24Z" transform="translate(-210.97 -394.57)"/><polygon class="cls-10" points="581.29 248.92 588.95 248.92 588.95 247.45 569.21 247.45 569.21 248.92 576.57 248.92 574.22 261.59 578.93 261.59 581.29 248.92 581.29 248.92"/><path class="cls-10" d="M805.52,656.16l.89-5.89h6.19c7.95,0,7.36-4.72,7.36-4.72,0-3.54-5.89-3.54-5.89-3.54H803.46l-2.36,14.15Z" transform="translate(-210.97 -394.57)"/><path class="cls-10" d="M753.07,687.4c6.19-6.49,15-11.2,24.75-11.2a33.71,33.71,0,0,1,33.89,33.89c0,12.38-6.78,25-16.8,30.94-1.47,4.72-2.65,8.25-2.94,14.44a47.21,47.21,0,0,0,33.89-45.38c0-26.52-21.22-47.15-48-47.15a47.42,47.42,0,0,0-37.13,17.68,36.52,36.52,0,0,1,12.38,6.78Z" transform="translate(-210.97 -394.57)"/><path class="cls-10" d="M745.11,701a31.23,31.23,0,0,0-1.18,9.14,33.84,33.84,0,0,0,34.19,34.18A57.25,57.25,0,0,0,776.05,757a43.65,43.65,0,0,1-10.61-1.18,46.25,46.25,0,0,1-35.65-45.68,39.68,39.68,0,0,1,2.65-15.62A20.94,20.94,0,0,1,745.11,701Z" transform="translate(-210.97 -394.57)"/><path class="cls-11" d="M779,699.48s.59,3.24.89,5.6c0,0,0,.59.88.88l2.65.89a2.45,2.45,0,0,1,1.77,2.65l-.3,3.24a2.68,2.68,0,0,1,2.66-1.47,2.4,2.4,0,0,1,2.06,2.36s0,2.35.59,2.94c0,0,.59,1.18,4.12,1.48a7.37,7.37,0,0,1,2.66,1.17c2.65,2.07.88,5.31.88,5.31a127.76,127.76,0,0,0-7.37,21.22s-4.42,16.5-.29,28.58h-5.9c-6.77-20.33,6.49-48,6.49-48s1.77-2.66-.3-3.24a3.65,3.65,0,0,1-1.76-.3s-3.25,0-2.66-4.12c.59-2.95-1.77-1.48-1.77-1.48-2.65,1.48-2.94-.88-2.94-.88a22.24,22.24,0,0,0-.3-2.65c0-1.18-.88-1.18-.88-1.18l-2.95-.89a2.39,2.39,0,0,1-2.06-2.36l-.59-5.3c0-2.36-2.36-1.47-2.36-1.47-1.18.29-5.6.88-5.6.88a14.44,14.44,0,0,1-6.18-.29c-3-.59-6.49-2.66-10.91-6.19a29.24,29.24,0,0,0-9.43-5.6c-10.9-3.83-22.1.88-22.1.88v-6.19s9.43-5,22.69-1.18c0,0,6.48,1.77,13.85,8a28.66,28.66,0,0,0,5.31,3.54,10.84,10.84,0,0,0,7.07,1.18,55.58,55.58,0,0,1,8.25-.89s3.83-.59,3.83,3Z" transform="translate(-210.97 -394.57)"/><polygon class="cls-12" points="561.54 256.88 558.89 252.16 554.77 256.88 561.54 256.88 561.54 256.88"/><path class="cls-12" d="M807.88,643.19l-1.18,5.9h4.13c4.42,0,4.12-3.24,4.12-3.24a2.6,2.6,0,0,0-2.65-2.66Z" transform="translate(-210.97 -394.57)"/><line class="cls-13" x1="569.21" y1="405.55" x2="569.21" y2="61.46"/><line class="cls-13" x1="1189.06" y1="405.55" x2="1189.06" y2="61.46"/></svg>